<?xml version="1.0" encoding="utf-8"?>
<!-- Generator: Adobe Illustrator 23.0.1, SVG Export Plug-In . SVG Version: 6.00 Build 0)  -->
<svg version="1.1" id="Layer_1" xmlns="http://www.w3.org/2000/svg" xmlns:xlink="http://www.w3.org/1999/xlink" x="0px" y="0px"
	 viewBox="0 0 63.59 63.59" style="enable-background:new 0 0 63.59 63.59;" xml:space="preserve">
<style type="text/css">
	.st0{fill:url(#SVGID_1_);}
	.st1{fill-rule:evenodd;clip-rule:evenodd;fill:url(#SVGID_2_);}
</style>
<g>
	<linearGradient id="SVGID_1_" gradientUnits="userSpaceOnUse" x1="32.0249" y1="48.7201" x2="32.0249" y2="15.4357">
		<stop  offset="0" style="stop-color:#D9E2ED"/>
		<stop  offset="1" style="stop-color:#E9EEF5"/>
	</linearGradient>
	<path class="st0" d="M13.03,15.99c-0.9,0-1.63-0.73-1.63-1.63c0-0.9,0.73-1.63,1.63-1.63c1.67,0,3.19,0.68,4.29,1.78
		c1.1,1.1,1.78,2.62,1.78,4.29v24.59c0,0.77,0.32,1.47,0.82,1.98l0,0l0,0c0.51,0.51,1.21,0.82,1.98,0.82h20.24
		c0.77,0,1.47-0.32,1.98-0.82c0.51-0.51,0.82-1.21,0.82-1.98V18.8c0-1.67,0.68-3.19,1.78-4.29c1.1-1.1,2.62-1.78,4.29-1.78
		c0.9,0,1.63,0.73,1.63,1.63c0,0.9-0.73,1.63-1.63,1.63c-0.77,0-1.47,0.32-1.98,0.82c-0.51,0.51-0.83,1.21-0.83,1.98v24.59
		c0,1.67-0.68,3.19-1.78,4.29c-1.1,1.1-2.62,1.78-4.29,1.78H21.91c-1.67,0-3.19-0.68-4.29-1.78l0.01,0c-1.1-1.1-1.79-2.62-1.79-4.29
		V18.8c0-0.77-0.32-1.47-0.82-1.98C14.5,16.31,13.8,15.99,13.03,15.99z"/>
	<linearGradient id="SVGID_2_" gradientUnits="userSpaceOnUse" x1="32.0248" y1="24.0007" x2="32.0248" y2="58.896">
		<stop  offset="0" style="stop-color:#00B1E0"/>
		<stop  offset="1" style="stop-color:#007B9F"/>
	</linearGradient>
	<path class="st1" d="M44.95,26.48c-1.12,0.26-2.35-0.04-3.22-0.91c-1.33-1.33-3.52-1.33-4.85,0c-1.33,1.33-3.52,1.33-4.85,0
		c-1.33-1.33-3.52-1.33-4.85,0c-1.33,1.33-3.52,1.33-4.85,0c-0.87-0.87-2.1-1.17-3.22-0.91v18.72c0,0.77,0.32,1.47,0.82,1.98l0,0
		l0,0c0.51,0.51,1.21,0.82,1.98,0.82h20.24c0.77,0,1.47-0.32,1.98-0.82c0.51-0.51,0.82-1.21,0.82-1.98V26.48z"/>
</g>
</svg>
