<?xml version="1.0" encoding="utf-8"?>
<!-- Generator: Adobe Illustrator 23.0.1, SVG Export Plug-In . SVG Version: 6.00 Build 0)  -->
<svg version="1.1" id="Layer_1" xmlns="http://www.w3.org/2000/svg" xmlns:xlink="http://www.w3.org/1999/xlink" x="0px" y="0px"
	 viewBox="0 0 63.59 63.59" style="enable-background:new 0 0 63.59 63.59;" xml:space="preserve">
<style type="text/css">
	.st0{fill-rule:evenodd;clip-rule:evenodd;fill:#CB7724;}
	.st1{fill-rule:evenodd;clip-rule:evenodd;fill:url(#SVGID_1_);}
	.st2{fill-rule:evenodd;clip-rule:evenodd;fill:url(#SVGID_2_);}
	.st3{fill-rule:evenodd;clip-rule:evenodd;fill:url(#SVGID_3_);}
	.st4{fill-rule:evenodd;clip-rule:evenodd;fill:url(#SVGID_4_);}
	.st5{fill-rule:evenodd;clip-rule:evenodd;fill:url(#SVGID_5_);}
	.st6{fill-rule:evenodd;clip-rule:evenodd;fill:url(#SVGID_6_);}
	.st7{fill-rule:evenodd;clip-rule:evenodd;fill:url(#SVGID_7_);}
	.st8{fill-rule:evenodd;clip-rule:evenodd;fill:url(#SVGID_8_);}
	.st9{fill-rule:evenodd;clip-rule:evenodd;fill:url(#SVGID_9_);}
	.st10{fill-rule:evenodd;clip-rule:evenodd;fill:url(#SVGID_10_);}
	.st11{fill-rule:evenodd;clip-rule:evenodd;fill:url(#SVGID_11_);}
	.st12{fill-rule:evenodd;clip-rule:evenodd;fill:url(#SVGID_12_);}
	.st13{fill-rule:evenodd;clip-rule:evenodd;fill:url(#SVGID_13_);}
	.st14{fill:url(#SVGID_14_);}
</style>
<g>
	<path class="st0" d="M20.21,16.44l0.52,3.19c0.04,0.24-0.05,0.47-0.25,0.62c-0.2,0.14-0.45,0.16-0.66,0.05l-2.88-1.48
		c-0.25-0.13-0.54-0.08-0.74,0.11c-0.2,0.2-0.24,0.49-0.11,0.74l1.48,2.88c0.11,0.22,0.1,0.47-0.05,0.66
		c-0.14,0.2-0.37,0.29-0.62,0.26l-3.19-0.52c-0.28-0.05-0.54,0.09-0.67,0.34c-0.13,0.25-0.08,0.54,0.12,0.74l2.3,2.27
		c0.18,0.17,0.23,0.41,0.16,0.65c-0.08,0.24-0.26,0.4-0.51,0.44l-3.2,0.5c-0.28,0.04-0.49,0.25-0.53,0.53
		c-0.05,0.28,0.09,0.54,0.34,0.67l2.89,1.45c0.22,0.11,0.35,0.32,0.35,0.57c0,0.25-0.13,0.46-0.35,0.57l-2.89,1.46
		c-0.25,0.13-0.39,0.39-0.34,0.67c0.04,0.28,0.25,0.48,0.53,0.53l3.2,0.49c0.24,0.04,0.43,0.2,0.51,0.43
		c0.08,0.23,0.02,0.48-0.16,0.65l-2.29,2.28c-0.2,0.2-0.25,0.49-0.12,0.74c0.13,0.25,0.39,0.38,0.67,0.34l3.19-0.53
		c0.24-0.04,0.47,0.06,0.62,0.26c0.14,0.2,0.16,0.45,0.05,0.66l-1.48,2.88c-0.13,0.25-0.08,0.54,0.12,0.74
		c0.2,0.2,0.49,0.24,0.74,0.11l2.87-1.48c0.22-0.11,0.47-0.1,0.67,0.05c0.2,0.14,0.29,0.37,0.26,0.62l0.18,2.07
		c0.02,0.28,0.09,0.54,0.34,0.67c0.25,0.13,0.54,0.08,0.74-0.12l1.58-1.18c0.2-0.15,0.42-0.24,0.65-0.16
		c0.24,0.08,0.4,0.26,0.43,0.51l0.5,3.2c0.04,0.28,0.25,0.49,0.53,0.53c0.28,0.04,0.54-0.09,0.66-0.34l1.45-2.89
		c0.11-0.22,0.32-0.35,0.57-0.35c0.25,0,0.46,0.13,0.57,0.35l1.46,2.89c0.13,0.25,0.39,0.39,0.67,0.34
		c0.28-0.05,0.48-0.25,0.53-0.53l0.49-3.2c0.04-0.24,0.2-0.43,0.43-0.51c0.23-0.08,0.47-0.02,0.65,0.16l2.28,2.3
		c0.2,0.2,0.49,0.25,0.74,0.12c0.25-0.13,0.38-0.39,0.34-0.67l-0.52-3.19c-0.04-0.24,0.05-0.47,0.25-0.62
		c0.2-0.14,0.45-0.16,0.67-0.05l2.88,1.48c0.25,0.13,0.54,0.08,0.74-0.12c0.2-0.2,0.24-0.49,0.11-0.74l-1.48-2.88
		c-0.11-0.22-0.09-0.47,0.05-0.66c0.14-0.2,0.37-0.29,0.62-0.26l3.19,0.52c0.28,0.04,0.54-0.09,0.67-0.34
		c0.13-0.25,0.08-0.54-0.12-0.74l-2.3-2.27c-0.18-0.17-0.23-0.41-0.16-0.65c0.08-0.24,0.26-0.4,0.51-0.43l3.2-0.5
		c0.28-0.04,0.49-0.25,0.53-0.53c0.04-0.28-0.09-0.54-0.34-0.67l-2.89-1.45c-0.22-0.11-0.35-0.32-0.35-0.57
		c0-0.25,0.13-0.46,0.35-0.57l0.8-0.04c0.28-0.01,0.39-0.39,0.34-0.67c-0.05-0.28-0.26-0.49-0.53-0.53l-1.11-1.91
		c-0.12-0.21-0.43-0.2-0.51-0.43c-0.08-0.23-0.02-0.47,0.16-0.65l2.3-2.28c0.2-0.2,0.24-0.49,0.12-0.74
		c-0.13-0.25-0.39-0.38-0.67-0.34l-3.19,0.52c-0.24,0.04-0.47-0.05-0.62-0.25c-0.15-0.2-0.16-0.45-0.05-0.67l1.48-2.88
		c0.13-0.25,0.08-0.54-0.12-0.74c-0.2-0.2-0.49-0.24-0.74-0.11l-2.87,1.48c-0.22,0.11-0.47,0.1-0.66-0.05
		c-0.2-0.14-0.3-0.37-0.26-0.62l0.52-3.19c0.05-0.28-0.09-0.54-0.34-0.67c-0.25-0.13-0.54-0.08-0.74,0.12l-2.28,2.3
		c-0.17,0.17-0.41,0.23-0.65,0.16c-0.23-0.08-0.39-0.26-0.43-0.51l-0.5-3.2c-0.04-0.28-0.25-0.49-0.53-0.53
		c-0.28-0.05-0.54,0.09-0.67,0.34l-1.45,2.89c-0.11,0.22-0.32,0.35-0.57,0.35c-0.25,0-0.46-0.13-0.57-0.35l-1.46-2.89
		c-0.13-0.25-0.39-0.39-0.67-0.34c-0.28,0.05-0.49,0.26-0.53,0.53l-0.49,3.2c-0.04,0.24-0.2,0.43-0.43,0.51
		c-0.23,0.08-0.47,0.02-0.65-0.16l-2.28-2.29c-0.2-0.2-0.49-0.25-0.74-0.12C20.3,15.89,20.16,16.16,20.21,16.44z"/>
	<linearGradient id="SVGID_1_" gradientUnits="userSpaceOnUse" x1="27.9421" y1="11.2702" x2="27.9421" y2="49.7737">
		<stop  offset="0" style="stop-color:#F1C115"/>
		<stop  offset="1" style="stop-color:#DB9027"/>
	</linearGradient>
	<path class="st1" d="M27.72,13.06l-1.06,3.31c-0.08,0.25-0.28,0.43-0.55,0.47c-0.26,0.04-0.51-0.06-0.66-0.27l-2.03-2.82
		c-0.18-0.24-0.48-0.34-0.77-0.25c-0.29,0.09-0.47,0.35-0.47,0.65l0.01,3.48c0,0.26-0.14,0.49-0.37,0.61
		c-0.23,0.12-0.5,0.1-0.71-0.06l-2.8-2.06c-0.24-0.18-0.56-0.18-0.81,0c-0.25,0.18-0.34,0.48-0.25,0.77l1.09,3.3
		c0.08,0.25,0.02,0.51-0.17,0.7c-0.19,0.19-0.45,0.25-0.7,0.17l-3.3-1.09c-0.29-0.09-0.59,0-0.77,0.25c-0.18,0.24-0.18,0.56,0,0.81
		l2.06,2.81c0.16,0.21,0.18,0.48,0.06,0.71c-0.12,0.24-0.35,0.37-0.61,0.37l-3.48-0.02c-0.3,0-0.56,0.18-0.66,0.47
		c-0.09,0.29,0.01,0.59,0.25,0.77l2.82,2.03c0.21,0.16,0.32,0.4,0.28,0.66c-0.04,0.26-0.22,0.47-0.47,0.55l-3.31,1.06
		c-0.29,0.09-0.48,0.35-0.48,0.65c0,0.3,0.19,0.56,0.48,0.65l3.31,1.06c0.25,0.08,0.42,0.28,0.47,0.55
		c0.04,0.26-0.06,0.51-0.28,0.66l-2.82,2.03c-0.24,0.18-0.34,0.48-0.25,0.77c0.09,0.29,0.35,0.47,0.65,0.47l3.48-0.02
		c0.27,0,0.49,0.14,0.61,0.37c0.12,0.24,0.1,0.5-0.06,0.72l-2.06,2.8c-0.18,0.24-0.18,0.56,0,0.81c0.18,0.24,0.48,0.34,0.77,0.25
		l3.3-1.09c0.25-0.08,0.51-0.02,0.7,0.17c0.19,0.19,0.25,0.45,0.16,0.7l-1.09,3.3c-0.1,0.29,0,0.59,0.25,0.77
		c0.24,0.18,0.56,0.18,0.81,0l2.81-2.06c0.21-0.16,0.48-0.18,0.72-0.06c0.23,0.12,0.37,0.35,0.37,0.61l0.49,1.93
		c0.07,0.29,0.19,0.56,0.47,0.65c0.29,0.09,0.59-0.01,0.76-0.25l1.53-1.27c0.2-0.17,0.4-0.32,0.66-0.28
		c0.26,0.04,0.46,0.22,0.54,0.47l1.06,3.31c0.09,0.29,0.35,0.48,0.65,0.48c0.3,0,0.56-0.19,0.65-0.48l1.06-3.31
		c0.08-0.25,0.28-0.43,0.55-0.47c0.26-0.04,0.51,0.06,0.66,0.28l2.03,2.82c0.18,0.25,0.48,0.34,0.77,0.25
		c0.29-0.09,0.47-0.35,0.47-0.65l-0.02-3.48c0-0.26,0.14-0.49,0.37-0.61c0.24-0.12,0.5-0.1,0.71,0.06l2.81,2.06
		c0.24,0.18,0.56,0.18,0.81,0c0.24-0.18,0.34-0.48,0.25-0.77L38.42,42c-0.08-0.25-0.02-0.51,0.16-0.7c0.19-0.19,0.45-0.25,0.7-0.16
		l3.3,1.09c0.29,0.09,0.59,0,0.77-0.25c0.18-0.24,0.18-0.56,0-0.81l-2.06-2.8c-0.16-0.21-0.18-0.48-0.06-0.72
		c0.12-0.24,0.35-0.37,0.61-0.37l3.48,0.02c0.3,0,0.56-0.19,0.65-0.47c0.09-0.29,0-0.59-0.25-0.77l-2.82-2.03
		c-0.21-0.16-0.32-0.4-0.28-0.66c0.04-0.26,0.22-0.47,0.47-0.55l1.03,0.33c0.29,0.09,0.47-0.35,0.47-0.65c0-0.3-0.19-0.56-0.47-0.65
		l-1.02-2.45c-0.1-0.24-0.43-0.28-0.47-0.55c-0.04-0.26,0.06-0.51,0.27-0.66l2.82-2.03c0.24-0.18,0.34-0.48,0.25-0.77
		c-0.09-0.29-0.35-0.47-0.65-0.47l-3.48,0.02c-0.26,0-0.49-0.14-0.61-0.37c-0.12-0.24-0.1-0.5,0.06-0.71l2.06-2.81
		c0.18-0.24,0.18-0.56,0-0.81c-0.18-0.25-0.48-0.34-0.77-0.25l-3.3,1.09c-0.25,0.08-0.51,0.02-0.7-0.17
		c-0.19-0.19-0.25-0.45-0.17-0.7l1.09-3.3c0.1-0.29,0-0.59-0.25-0.77c-0.24-0.18-0.56-0.18-0.81,0l-2.81,2.06
		c-0.21,0.16-0.48,0.18-0.71,0.06c-0.24-0.12-0.38-0.35-0.37-0.61l0.02-3.48c0-0.3-0.18-0.56-0.47-0.65
		c-0.29-0.09-0.59,0.01-0.77,0.25l-2.03,2.82c-0.16,0.21-0.4,0.32-0.66,0.27c-0.26-0.04-0.47-0.21-0.55-0.47l-1.06-3.31
		c-0.09-0.29-0.35-0.48-0.65-0.48C28.08,12.58,27.82,12.77,27.72,13.06z"/>
	<g>
		<linearGradient id="SVGID_2_" gradientUnits="userSpaceOnUse" x1="28.3772" y1="45.0209" x2="28.3772" y2="20.7849">
			<stop  offset="0" style="stop-color:#DD9625"/>
			<stop  offset="0.19" style="stop-color:#DF9C25"/>
			<stop  offset="1" style="stop-color:#EAB21B"/>
		</linearGradient>
		<path class="st2" d="M28.38,20.85c-6.67,0-12.08,5.41-12.08,12.08c0,6.67,5.41,12.08,12.08,12.08c6.67,0,12.08-5.41,12.08-12.08
			C40.46,26.26,35.05,20.85,28.38,20.85z"/>
		<linearGradient id="SVGID_3_" gradientUnits="userSpaceOnUse" x1="28.3772" y1="44.8496" x2="28.3772" y2="20.8073">
			<stop  offset="0" style="stop-color:#DB9325"/>
			<stop  offset="0.19" style="stop-color:#DD9925"/>
			<stop  offset="1" style="stop-color:#E7AD1C"/>
		</linearGradient>
		<path class="st3" d="M28.38,20.88c-6.51,0-11.8,5.37-11.8,11.99c0,6.62,5.28,11.99,11.8,11.99c6.51,0,11.79-5.37,11.79-11.99
			C40.17,26.24,34.89,20.88,28.38,20.88z"/>
		<linearGradient id="SVGID_4_" gradientUnits="userSpaceOnUse" x1="28.3772" y1="44.6782" x2="28.3772" y2="20.8297">
			<stop  offset="0" style="stop-color:#DA9025"/>
			<stop  offset="0.19" style="stop-color:#DB9525"/>
			<stop  offset="1" style="stop-color:#E4A71D"/>
		</linearGradient>
		<path class="st4" d="M28.38,20.9c-6.35,0-11.51,5.32-11.51,11.89c0,6.57,5.15,11.89,11.51,11.89c6.35,0,11.5-5.32,11.5-11.89
			C39.88,26.22,34.73,20.9,28.38,20.9z"/>
		<linearGradient id="SVGID_5_" gradientUnits="userSpaceOnUse" x1="28.3772" y1="44.5069" x2="28.3772" y2="20.8521">
			<stop  offset="0" style="stop-color:#D88E25"/>
			<stop  offset="0.19" style="stop-color:#DA9225"/>
			<stop  offset="1" style="stop-color:#E2A21D"/>
		</linearGradient>
		<path class="st5" d="M28.38,20.92c-6.19,0-11.22,5.28-11.22,11.79c0,6.51,5.02,11.79,11.22,11.79c6.19,0,11.21-5.28,11.21-11.79
			C39.59,26.2,34.57,20.92,28.38,20.92z"/>
		<linearGradient id="SVGID_6_" gradientUnits="userSpaceOnUse" x1="28.3772" y1="44.3355" x2="28.3772" y2="20.8745">
			<stop  offset="0" style="stop-color:#D68B25"/>
			<stop  offset="0.19" style="stop-color:#D88F25"/>
			<stop  offset="1" style="stop-color:#DF9D1E"/>
		</linearGradient>
		<path class="st6" d="M28.38,20.94c-6.03,0-10.93,5.24-10.93,11.7c0,6.46,4.89,11.7,10.93,11.7c6.03,0,10.92-5.24,10.92-11.7
			C39.3,26.18,34.41,20.94,28.38,20.94z"/>
		<linearGradient id="SVGID_7_" gradientUnits="userSpaceOnUse" x1="28.3772" y1="44.1642" x2="28.3772" y2="20.8969">
			<stop  offset="0" style="stop-color:#D58825"/>
			<stop  offset="0.19" style="stop-color:#D68B25"/>
			<stop  offset="1" style="stop-color:#DC971F"/>
		</linearGradient>
		<path class="st7" d="M28.38,20.96c-5.87,0-10.64,5.2-10.64,11.6c0,6.41,4.76,11.6,10.64,11.6c5.87,0,10.63-5.19,10.63-11.6
			C39.01,26.16,34.25,20.96,28.38,20.96z"/>
		<linearGradient id="SVGID_8_" gradientUnits="userSpaceOnUse" x1="28.3772" y1="43.9928" x2="28.3772" y2="20.9193">
			<stop  offset="0" style="stop-color:#D38524"/>
			<stop  offset="0.19" style="stop-color:#D48824"/>
			<stop  offset="1" style="stop-color:#D99220"/>
		</linearGradient>
		<path class="st8" d="M28.38,20.98c-5.71,0-10.35,5.15-10.35,11.5c0,6.35,4.63,11.5,10.35,11.5c5.71,0,10.34-5.15,10.34-11.5
			C38.72,26.14,34.09,20.98,28.38,20.98z"/>
		<linearGradient id="SVGID_9_" gradientUnits="userSpaceOnUse" x1="28.3772" y1="43.8215" x2="28.3772" y2="20.9417">
			<stop  offset="0" style="stop-color:#D28224"/>
			<stop  offset="0.19" style="stop-color:#D28424"/>
			<stop  offset="1" style="stop-color:#D68C21"/>
		</linearGradient>
		<path class="st9" d="M28.38,21.01c-5.55,0-10.06,5.11-10.06,11.41c0,6.3,4.5,11.41,10.06,11.41c5.55,0,10.05-5.11,10.05-11.41
			C38.43,26.12,33.93,21.01,28.38,21.01z"/>
		<linearGradient id="SVGID_10_" gradientUnits="userSpaceOnUse" x1="28.3772" y1="43.6501" x2="28.3772" y2="20.964">
			<stop  offset="0" style="stop-color:#D07F24"/>
			<stop  offset="0.19" style="stop-color:#D08124"/>
			<stop  offset="1" style="stop-color:#D38722"/>
		</linearGradient>
		<path class="st10" d="M28.38,21.03c-5.39,0-9.77,5.07-9.77,11.31c0,6.25,4.37,11.31,9.77,11.31c5.39,0,9.76-5.06,9.76-11.31
			C38.14,26.09,33.77,21.03,28.38,21.03z"/>
		<linearGradient id="SVGID_11_" gradientUnits="userSpaceOnUse" x1="28.3772" y1="43.4788" x2="28.3772" y2="20.9864">
			<stop  offset="0" style="stop-color:#CE7D24"/>
			<stop  offset="0.19" style="stop-color:#CF7E24"/>
			<stop  offset="1" style="stop-color:#D18222"/>
		</linearGradient>
		<path class="st11" d="M28.38,21.05c-5.23,0-9.48,5.02-9.48,11.22c0,6.19,4.24,11.21,9.48,11.21c5.23,0,9.47-5.02,9.47-11.21
			C37.85,26.07,33.61,21.05,28.38,21.05z"/>
		<linearGradient id="SVGID_12_" gradientUnits="userSpaceOnUse" x1="28.3772" y1="43.3074" x2="28.3772" y2="21.0088">
			<stop  offset="0" style="stop-color:#CD7A24"/>
			<stop  offset="0.19" style="stop-color:#CD7A24"/>
			<stop  offset="1" style="stop-color:#CE7C23"/>
		</linearGradient>
		<path class="st12" d="M28.38,21.07c-5.07,0-9.19,4.98-9.19,11.12c0,6.14,4.11,11.12,9.19,11.12c5.07,0,9.18-4.98,9.18-11.12
			C37.56,26.05,33.45,21.07,28.38,21.07z"/>
		<path class="st0" d="M28.38,21.09c-4.91,0-8.9,4.94-8.9,11.02s3.98,11.02,8.9,11.02c4.91,0,8.89-4.93,8.89-11.02
			S33.29,21.09,28.38,21.09z"/>
	</g>
	<linearGradient id="SVGID_13_" gradientUnits="userSpaceOnUse" x1="28.3772" y1="18.9684" x2="28.3772" y2="42.6301">
		<stop  offset="0" style="stop-color:#F4D736"/>
		<stop  offset="1" style="stop-color:#DB9027"/>
	</linearGradient>
	<path class="st13" d="M28.38,18.97c-6.67,0-12.08,5.41-12.08,12.08c0,6.67,5.41,12.08,12.08,12.08c6.67,0,12.08-5.41,12.08-12.08
		C40.46,24.38,35.05,18.97,28.38,18.97z"/>
	<linearGradient id="SVGID_14_" gradientUnits="userSpaceOnUse" x1="36.3544" y1="49.1006" x2="36.3544" y2="26.464">
		<stop  offset="0" style="stop-color:#D9E2ED"/>
		<stop  offset="1" style="stop-color:#E9EEF5"/>
	</linearGradient>
	<path class="st14" d="M52.09,47.51c-1.28,1.28-3.04,2.08-4.99,2.09h-0.04h-19.3c-2.55,0-4.85-1.03-6.52-2.7l0,0
		c-1.67-1.67-2.71-3.98-2.71-6.52c0-2.44,0.96-4.67,2.51-6.32c1.39-1.47,3.25-2.48,5.34-2.8c0.96-1.88,2.4-3.48,4.16-4.63
		c1.92-1.27,4.22-2.01,6.69-2.01c3.36,0,6.41,1.37,8.61,3.57c1.97,1.97,3.27,4.61,3.52,7.55c1.24,0.42,2.32,1.18,3.14,2.16
		c1.05,1.24,1.68,2.84,1.68,4.58C54.18,44.45,53.38,46.23,52.09,47.51L52.09,47.51L52.09,47.51z"/>
</g>
</svg>
