<?xml version="1.0" encoding="utf-8"?>
<!-- Generator: Adobe Illustrator 23.0.1, SVG Export Plug-In . SVG Version: 6.00 Build 0)  -->
<svg version="1.1" id="Layer_1" xmlns="http://www.w3.org/2000/svg" xmlns:xlink="http://www.w3.org/1999/xlink" x="0px" y="0px"
	 viewBox="0 0 63.59 63.59" style="enable-background:new 0 0 63.59 63.59;" xml:space="preserve">
<style type="text/css">
	.st0{fill:#9B6144;}
</style>
<g>
	<g>
		<path class="st0" d="M32.9,52.42c-0.03,0-0.05,0-0.08,0c-1.27-0.04-2.34-0.97-2.54-2.23l-3.34-20.62L25.02,42.2
			c-0.18,1.21-1.17,2.14-2.39,2.25c-1.23,0.09-2.36-0.63-2.75-1.79l-4.05-11.89l-3.03,5.3c-0.48,0.84-1.33,1.32-2.34,1.34
			l-7.85-0.11c-1.47-0.02-2.64-1.23-2.62-2.69c0.02-1.46,1.21-2.62,2.66-2.62c0.01,0,0.02,0,0.04,0l6.28,0.09l5.18-9.05
			c0.52-0.91,1.52-1.42,2.56-1.33c1.04,0.1,1.93,0.8,2.26,1.79l2.44,7.17l2.83-18.61c0.2-1.29,1.31-2.25,2.62-2.26
			c0,0,0.01,0,0.01,0c1.3,0,2.41,0.95,2.62,2.23l3.83,23.71l4.34-19.4c0.27-1.2,1.33-2.06,2.56-2.08c1.21,0.04,2.31,0.82,2.61,2.01
			l4.6,18.39l1.11-1.48c0.49-0.65,1.25-1.04,2.06-1.06l10.73-0.26c0.02,0,0.05,0,0.07,0c1.44,0,2.62,1.15,2.65,2.59
			c0.04,1.47-1.12,2.69-2.59,2.72l-9.45,0.23l-3.69,4.92c-0.62,0.82-1.64,1.22-2.65,1.01c-1.01-0.2-1.8-0.97-2.05-1.96L40.4,28.42
			l-4.9,21.92C35.22,51.56,34.14,52.42,32.9,52.42z"/>
	</g>
</g>
</svg>
