<?xml version="1.0" encoding="utf-8"?>
<!-- Generator: Adobe Illustrator 23.0.1, SVG Export Plug-In . SVG Version: 6.00 Build 0)  -->
<svg version="1.1" id="Layer_1" xmlns="http://www.w3.org/2000/svg" xmlns:xlink="http://www.w3.org/1999/xlink" x="0px" y="0px"
	 viewBox="0 0 63.59 63.59" style="enable-background:new 0 0 63.59 63.59;" xml:space="preserve">
<style type="text/css">
	.st0{fill:url(#SVGID_1_);}
	.st1{fill:url(#SVGID_2_);}
</style>
<g>
	<linearGradient id="SVGID_1_" gradientUnits="userSpaceOnUse" x1="32.0249" y1="53.7834" x2="32.0249" y2="10.2115">
		<stop  offset="0" style="stop-color:#D9E2ED"/>
		<stop  offset="1" style="stop-color:#E9EEF5"/>
	</linearGradient>
	<path class="st0" d="M38.25,34.02c1.07,0.84,1.96,1.9,2.61,3.11c0.77,1.42,1.2,3.04,1.2,4.76c0,2.77-1.13,5.29-2.94,7.1
		c-1.81,1.81-4.33,2.94-7.1,2.94s-5.28-1.13-7.1-2.94c-1.81-1.81-2.94-4.33-2.94-7.1c0-1.72,0.44-3.34,1.2-4.76
		c0.65-1.21,1.54-2.26,2.61-3.11V16.48c0-1.71,0.7-3.27,1.83-4.39l0.01-0.01l0.02-0.02c1.13-1.11,2.67-1.8,4.37-1.8
		c1.71,0,3.27,0.7,4.39,1.83l0.01,0.01l0.02,0.02c1.11,1.13,1.8,2.68,1.8,4.37V34.02z"/>
	<linearGradient id="SVGID_2_" gradientUnits="userSpaceOnUse" x1="32.025" y1="14.1669" x2="32.025" y2="48.2428">
		<stop  offset="0" style="stop-color:#EF5660"/>
		<stop  offset="1" style="stop-color:#D34352"/>
	</linearGradient>
	<path class="st1" d="M38.04,38.65c-0.53-0.98-1.29-1.82-2.22-2.43c-0.47-0.28-0.78-0.79-0.78-1.37V16.48
		c0-0.83-0.34-1.58-0.88-2.13l-0.01-0.01c-0.55-0.54-1.3-0.88-2.13-0.88c-0.83,0-1.59,0.34-2.13,0.88l-0.01,0.01
		C29.34,14.9,29,15.65,29,16.48v18.36l0,0c0,0.52-0.26,1.03-0.73,1.34c-0.95,0.62-1.73,1.47-2.27,2.47
		c-0.52,0.96-0.81,2.07-0.81,3.24c0,1.89,0.77,3.6,2,4.83c1.24,1.23,2.95,2,4.83,2c1.89,0,3.6-0.77,4.83-2c1.24-1.24,2-2.95,2-4.83
		C38.86,40.72,38.56,39.61,38.04,38.65z"/>
</g>
</svg>
