<?xml version="1.0" encoding="utf-8"?>
<!-- Generator: Adobe Illustrator 23.0.1, SVG Export Plug-In . SVG Version: 6.00 Build 0)  -->
<svg version="1.1" id="Layer_1" xmlns="http://www.w3.org/2000/svg" xmlns:xlink="http://www.w3.org/1999/xlink" x="0px" y="0px"
	 viewBox="0 0 63.59 63.59" style="enable-background:new 0 0 63.59 63.59;" xml:space="preserve">
<style type="text/css">
	.st0{fill:#80B441;}
</style>
<g>
	<path class="st0" d="M20.57,48.28c0,0-1.52-2.74-5.78-6.4c-4.26-3.66-6.43-8.07-6.44-13.92C8.33,22.1,11.63,11.54,9.81,8.18
		c0,0,2.85,2.26,6.52,4.77c3.67,2.51,12.7,9.7,12.14,20.27c-0.56,10.57-6.98,13.24-6.1,20.71c0,0-0.61,0.3-1.07-0.34
		c-0.47-0.64,0.45-3.39,0.42-5.96c-0.03-2.58-2.46-20.55-6.22-28.6C15.48,19.03,21.07,43.29,20.57,48.28z"/>
	<path class="st0" d="M26.65,45.9c0,0,1.93-10.04,4.82-14c2.88-3.96,6.99-6.65,12.66-8.29c5.67-1.64,8.9,0.43,11.58-0.09
		c0,0-3.53,3.57-5.29,7.69c-1.76,4.13-5.93,11.92-13.06,14.04c-7.12,2.11-9.36,0.47-12.45,4.38c0,0-0.2,0.26-0.62,0.17
		c-0.41-0.09,1.6-2.33,2.51-3.11c0.91-0.78,15.34-12.83,19.4-16.76C46.21,29.92,32.42,40.32,26.65,45.9z"/>
</g>
</svg>
